# xmcd
#
# Track frame offsets:
#	150
#	14414
#	27304
#	44911
#	64382
#	78908
#	94105
#	108114
#	120089
#	137104
#	155364
#	170212
#	184972
#
# Disc length: 2677 seconds
#
# Revision: 9240725
# Processed by: cddbd v1.5.2PL0 Copyright (c) Steve Scherf et al.
# Submitted via: EZCDAudioConverter 7.1.5.1
#
DISCID=ae0a730d
DTITLE=Luke Bryan - Crash My Party
DYEAR=2013
DGENRE=Country
TTITLE0=That’S My Kind Of Night
TTITLE1=Beer In The Headlights
TTITLE2=Crash My Party
TTITLE3=Roller Coaster
TTITLE4=We Run This Town
TTITLE5=Drink A Beer
TTITLE6=I See You
TTITLE7=Goodbye Girl
TTITLE8=Play It Again
TTITLE9=Blood Brothers
TTITLE10=Out Like That
TTITLE11=Shut It Down
TTITLE12=Dirt Road Diary
EXTD=
EXTT0=
EXTT1=
EXTT2=
EXTT3=
EXTT4=
EXTT5=
EXTT6=
EXTT7=
EXTT8=
EXTT9=
EXTT10=
EXTT11=
EXTT12=
PLAYORDER=
